<svg id="Layer_3" data-name="Layer 3" xmlns="http://www.w3.org/2000/svg" xmlns:xlink="http://www.w3.org/1999/xlink" viewBox="0 0 659.91 512"><defs><linearGradient id="linear-gradient" x1="283.48" y1="693.4" x2="977.56" y2="177.88" gradientUnits="userSpaceOnUse"><stop offset="0" stop-color="#ed2054"/><stop offset="1" stop-color="#fbb03b"/></linearGradient><linearGradient id="linear-gradient-2" x1="345.75" y1="777.24" x2="1039.83" y2="261.72" xlink:href="#linear-gradient"/></defs><title>logocolor</title><path d="M787,216.5h0A11.59,11.59,0,0,1,777,225.69c-49,4-84,61.14-64.22,115.15l20.61,56.36h0a62.92,62.92,0,0,1,2.07,36.05L679,670c-6,25.34-26.87,43-50.71,43H485.15c-40.63,0-70.29-42.21-60-85.4l88-369.56c8-33.6,35.64-57,67.25-57H776.15C783.53,201,788.91,208.66,787,216.5Z" transform="translate(-423.09 -201)" style="fill:url(#linear-gradient)"/><path d="M1081.07,281.37,1042.54,443.1c-6.72,28.22-29.93,47.9-56.48,47.9H794.59c-13.87,0-24-14.41-20.48-29.15l5.53-23.21A55.58,55.58,0,0,1,793.49,413l1-1,40.17-41.72c32.54-33.79,30.43-87.55,3.05-119.18a31.83,31.83,0,0,1-6.7-28h0c3.09-13,13.77-22,26-22h167.62C1062.84,201,1090.75,240.73,1081.07,281.37Z" transform="translate(-423.09 -201)" style="fill:url(#linear-gradient-2)"/></svg>