<svg id="Layer_2" data-name="Layer 2" xmlns="http://www.w3.org/2000/svg" viewBox="0 0 659.91 512">
    <title>logo</title>
    <path
        d="M962,299.5h0A11.59,11.59,0,0,1,952,308.69c-49,4-84,61.14-64.22,115.15l20.61,56.36h0a62.92,62.92,0,0,1,2.07,36.05L854,753c-6,25.34-26.87,43-50.71,43H660.15c-40.63,0-70.29-42.21-60-85.4l88-369.56c8-33.6,35.64-57,67.25-57H951.15C958.53,284,963.91,291.66,962,299.5Z"
        transform="translate(-598.09 -284)" style="fill:hsl(210, 17%, 98%)" />
    <path
        d="M1256.07,364.37,1217.54,526.1c-6.72,28.22-29.93,47.9-56.48,47.9H969.59c-13.87,0-24-14.41-20.48-29.15l5.53-23.21A55.58,55.58,0,0,1,968.49,496l1-1,40.17-41.72c32.54-33.79,30.43-87.55,3.05-119.18a31.83,31.83,0,0,1-6.7-28h0c3.09-13,13.77-22,26-22h167.62C1237.84,284,1265.75,323.73,1256.07,364.37Z"
        transform="translate(-598.09 -284)" style="fill:hsl(210, 17%, 98%)" />
</svg>